<?xml version="1.0" encoding="iso-8859-1"?>
<!-- Generator: Adobe Illustrator 19.0.0, SVG Export Plug-In . SVG Version: 6.00 Build 0)  -->
<svg version="1.1" id="Layer_1" xmlns="http://www.w3.org/2000/svg" xmlns:xlink="http://www.w3.org/1999/xlink" x="0px" y="0px"
	 viewBox="0 0 512 512" style="enable-background:new 0 0 512 512;" xml:space="preserve">
<circle style="fill:#78BAEB;" cx="256" cy="256" r="256"/>
<path style="fill:#59AAE7;" d="M256,0c-11.317,0-22.461,0.744-33.391,2.167C348.216,18.53,445.217,125.933,445.217,256
	s-97.002,237.47-222.609,253.833C233.539,511.256,244.683,512,256,512c141.385,0,256-114.616,256-256S397.385,0,256,0z"/>
<path style="fill:#FCFCFC;" d="M358.315,425.655c-17.987,0-34.897-7.004-47.615-19.723l-2.488-2.488
	c-16.754,5.933-34.317,8.939-52.212,8.939c-86.23,0-156.383-70.153-156.383-156.383c0-17.899,3.007-35.463,8.94-52.211l-2.489-2.489
	c-12.701-12.701-19.695-29.611-19.695-47.616c0.001-18.005,6.995-34.915,19.698-47.616c12.718-12.718,29.627-19.722,47.614-19.722
	s34.897,7.004,47.615,19.723l2.488,2.488c16.755-5.933,34.317-8.94,52.212-8.94c86.23,0,156.383,70.153,156.383,156.383
	c0,17.899-3.007,35.463-8.94,52.211l2.489,2.489c12.701,12.701,19.695,29.611,19.695,47.616
	c-0.001,18.005-6.995,34.915-19.698,47.616C393.212,418.65,376.302,425.655,358.315,425.655z"/>
<path style="fill:#59AAE7;" d="M222.609,342.817c-23.322,0-42.296-18.974-42.296-42.296c0-11.047,8.988-20.035,20.035-20.035
	c11.047,0,20.035,8.988,20.035,20.035c0,1.228,0.998,2.226,2.226,2.226h55.652c7.365,0,13.357-5.991,13.357-13.357
	s-5.991-13.357-13.357-13.357h-44.522c-29.46,0-53.426-23.967-53.426-53.426s23.966-53.426,53.426-53.426h55.652
	c23.322,0,42.296,18.974,42.296,42.296c0,11.047-8.988,20.035-20.035,20.035s-20.035-8.988-20.035-20.035
	c0-1.228-0.998-2.226-2.226-2.226h-55.652c-7.365,0-13.357,5.992-13.357,13.357c0,7.365,5.992,13.357,13.357,13.357h44.522
	c29.46,0,53.426,23.967,53.426,53.426c0,29.459-23.966,53.426-53.426,53.426H222.609z"/>
<g>
</g>
<g>
</g>
<g>
</g>
<g>
</g>
<g>
</g>
<g>
</g>
<g>
</g>
<g>
</g>
<g>
</g>
<g>
</g>
<g>
</g>
<g>
</g>
<g>
</g>
<g>
</g>
<g>
</g>
</svg>
